<?xml version="1.0" standalone="no"?>
<!DOCTYPE svg PUBLIC "-//W3C//DTD SVG 20010904//EN"
 "http://www.w3.org/TR/2001/REC-SVG-20010904/DTD/svg10.dtd">
<svg version="1.0" xmlns="http://www.w3.org/2000/svg"
 width="1694" height="387" viewBox="0 0 1694.000000 387.000000"
 preserveAspectRatio="xMidYMid meet">
<metadata>
Created by potrace 1.16, written by Peter Selinger 2001-2019
</metadata>
<g transform="translate(0.000000,387.000000) scale(0.100000,-0.100000)"
fill="#c4a55a" stroke="none">
<path d="M12575 3555 c-49 -7 -132 -22 -182 -35 -127 -30 -341 -137 -449 -224
-230 -185 -379 -414 -441 -676 -19 -81 -26 -143 -30 -270 -7 -217 7 -348 51
-482 46 -142 109 -264 199 -384 89 -118 166 -192 279 -267 166 -110 297 -163
500 -202 107 -20 163 -25 288 -25 131 0 177 5 295 29 157 32 264 70 377 135
97 55 242 170 309 244 28 32 76 95 106 141 105 159 164 312 198 520 14 82 16
136 12 255 -12 293 -76 503 -217 714 -66 99 -213 247 -308 311 -93 63 -295
157 -386 180 -102 27 -314 51 -424 50 -48 -1 -127 -7 -177 -14z m440 -190
c213 -61 388 -177 503 -333 103 -139 179 -332 217 -551 19 -110 19 -341 0
-449 -45 -256 -127 -423 -294 -595 -106 -110 -282 -213 -420 -248 -137 -34
-225 -40 -341 -23 -141 21 -264 63 -380 131 -166 98 -324 284 -402 475 -78
191 -111 429 -90 646 27 283 158 575 325 728 127 117 284 197 456 235 68 15
113 18 211 14 94 -3 147 -11 215 -30z"/>
<path d="M5187 3528 c-8 -13 -18 -50 -21 -83 -4 -33 -11 -96 -16 -140 -5 -44
-18 -161 -29 -260 -18 -161 -39 -334 -72 -595 -19 -149 -27 -222 -39 -335 -6
-60 -22 -189 -35 -285 -14 -96 -30 -213 -36 -260 -30 -233 -55 -318 -106 -372
-15 -16 -55 -37 -92 -49 -36 -12 -72 -26 -78 -32 -20 -15 -15 -44 9 -61 19
-14 66 -16 315 -16 279 0 294 1 313 20 30 30 13 61 -46 83 -27 10 -59 28 -71
39 -12 11 -26 41 -33 67 -9 37 -6 84 15 256 14 116 32 284 40 375 8 91 19 208
25 260 5 52 14 148 19 213 8 101 30 287 47 405 3 20 9 30 16 26 11 -7 229
-448 323 -654 29 -63 75 -165 103 -226 28 -60 60 -126 71 -145 11 -18 62 -126
114 -239 52 -113 118 -257 147 -320 29 -63 62 -127 72 -142 11 -16 31 -31 45
-34 21 -6 32 -1 52 22 14 16 48 85 75 154 27 69 85 204 129 300 44 96 114 254
157 350 42 96 94 211 114 255 42 89 166 367 245 550 53 121 74 155 88 141 10
-10 29 -161 53 -416 11 -118 26 -255 34 -305 8 -49 20 -133 26 -185 6 -52 19
-158 30 -235 46 -343 49 -405 18 -455 -7 -12 -41 -34 -74 -51 -34 -16 -65 -36
-68 -45 -7 -19 8 -50 30 -58 8 -3 167 -6 353 -6 363 0 376 2 369 51 -2 20 -15
28 -78 49 -42 14 -90 35 -107 48 -53 38 -79 108 -112 307 -33 197 -44 273 -61
410 -30 250 -42 338 -55 420 -7 50 -19 137 -25 195 -6 58 -17 148 -25 200 -22
150 -34 240 -40 305 -13 118 -56 450 -62 470 -9 31 -34 55 -58 55 -12 0 -33
-13 -48 -28 -15 -15 -74 -133 -132 -262 -59 -129 -135 -296 -171 -370 -35 -74
-64 -138 -64 -142 0 -4 -26 -64 -59 -135 -32 -70 -93 -204 -136 -298 -135
-296 -284 -618 -308 -664 -12 -25 -28 -47 -34 -49 -13 -4 -93 157 -435 863
-82 171 -227 470 -321 665 -95 195 -181 368 -192 385 -16 23 -29 31 -57 33
-29 3 -40 -1 -51 -20z"/>
<path d="M15306 3526 c-12 -14 -74 -154 -138 -313 -64 -158 -141 -344 -171
-413 -87 -200 -186 -434 -247 -585 -111 -270 -221 -530 -327 -775 -50 -115
-116 -217 -163 -250 -16 -11 -55 -30 -86 -40 -61 -21 -94 -45 -94 -67 0 -7 9
-22 20 -33 19 -19 33 -20 303 -20 155 1 302 5 326 9 24 5 47 15 52 22 20 30 4
54 -52 81 -65 31 -99 68 -99 110 0 16 23 88 50 161 28 73 76 199 107 280 31
82 62 156 69 165 11 15 42 18 231 22 120 3 314 5 432 4 192 -2 216 -4 232 -21
20 -21 90 -178 162 -368 63 -168 80 -230 73 -270 -7 -38 -32 -62 -90 -90 -30
-15 -42 -27 -44 -46 -6 -53 1 -54 384 -57 238 -2 360 1 374 8 11 6 24 19 30
30 9 16 6 25 -13 44 -13 13 -48 31 -78 39 -75 22 -142 69 -178 125 -40 63
-142 278 -180 377 -16 44 -38 100 -49 125 -22 51 -166 392 -219 520 -20 47
-51 121 -70 165 -19 44 -50 116 -68 160 -107 258 -143 344 -243 575 -60 140
-112 265 -116 276 -10 33 -52 74 -76 74 -12 0 -31 -11 -44 -24z m21 -538 c6
-7 45 -105 88 -218 119 -312 209 -548 240 -623 22 -55 25 -70 15 -82 -11 -13
-62 -15 -363 -13 -301 3 -351 5 -359 18 -10 16 -9 20 218 592 52 131 94 239
94 242 0 15 41 96 48 96 5 0 14 -6 19 -12z"/>
<path d="M328 3509 c-10 -5 -18 -18 -18 -28 0 -26 27 -46 90 -66 73 -24 123
-74 144 -145 14 -47 16 -156 16 -950 0 -602 -4 -916 -11 -956 -13 -70 -53
-148 -89 -174 -14 -10 -46 -26 -71 -36 -49 -19 -89 -51 -89 -71 0 -7 9 -22 20
-33 15 -15 33 -20 79 -20 80 0 273 -41 411 -88 125 -42 358 -135 535 -212 61
-26 184 -80 274 -119 194 -85 476 -188 641 -236 65 -19 180 -46 255 -61 127
-24 150 -26 333 -21 131 3 222 10 272 21 128 29 263 80 375 142 119 66 195
129 195 162 0 12 -11 29 -26 39 -25 16 -30 15 -168 -30 -169 -57 -297 -77
-487 -77 -200 0 -348 22 -588 89 -324 91 -507 146 -714 217 -106 36 -321 108
-478 160 -261 86 -290 97 -317 128 -19 22 -35 55 -42 88 -8 38 -10 323 -8
1038 3 986 3 986 28 1035 23 45 35 54 113 95 49 25 90 52 93 63 3 11 -2 27
-12 38 -16 18 -34 19 -378 19 -227 0 -368 -4 -378 -11z"/>
<path d="M2142 3508 c-17 -17 -15 -43 6 -60 9 -8 39 -23 65 -32 63 -24 101
-57 123 -108 17 -40 18 -92 21 -748 1 -388 4 -734 7 -770 5 -66 36 -187 76
-293 23 -60 91 -159 164 -235 97 -103 263 -194 434 -239 78 -20 130 -26 262
-30 148 -5 177 -3 286 20 180 37 321 107 443 222 61 57 142 172 177 250 23 53
46 133 66 230 7 31 13 344 17 815 6 743 7 766 26 800 14 23 37 43 70 58 110
51 120 57 123 79 2 13 -5 27 -20 37 -19 14 -63 16 -311 16 -180 0 -296 -4
-308 -10 -11 -6 -19 -21 -19 -35 0 -27 28 -50 75 -61 53 -12 104 -43 118 -72
8 -15 18 -40 22 -57 11 -45 15 -1221 5 -1367 -11 -154 -27 -226 -74 -338 -64
-153 -184 -284 -321 -350 -129 -63 -341 -81 -486 -42 -94 25 -197 76 -267 132
-29 23 -73 70 -97 105 -52 72 -127 228 -144 297 -28 117 -31 217 -32 874 0
811 -10 747 117 810 42 22 82 47 88 56 8 13 6 22 -8 37 -19 20 -29 21 -356 21
-248 0 -339 -3 -348 -12z"/>
<path d="M8102 3504 c-33 -23 -25 -55 18 -76 19 -9 57 -27 85 -40 39 -19 54
-34 75 -73 25 -49 25 -49 25 -1040 0 -948 -1 -992 -19 -1028 -23 -46 -62 -75
-139 -102 -42 -14 -62 -27 -68 -43 -6 -17 -4 -27 11 -42 19 -19 35 -20 375
-20 346 0 356 1 376 21 18 18 19 23 7 41 -8 12 -37 29 -64 38 -79 25 -120 56
-146 108 -23 47 -23 47 -23 1032 0 985 0 985 23 1033 17 33 37 55 65 71 23 13
56 27 72 30 47 11 75 34 75 61 0 14 -8 29 -19 35 -13 6 -146 10 -363 10 -298
0 -347 -2 -366 -16z"/>
<path d="M9267 3502 c-9 -10 -17 -23 -17 -29 0 -19 37 -43 98 -64 41 -14 71
-32 91 -55 62 -71 61 -44 61 -1070 0 -656 -3 -949 -11 -986 -15 -71 -72 -129
-148 -152 -29 -9 -60 -21 -67 -27 -20 -17 -17 -57 5 -69 27 -14 705 -14 732 0
21 12 26 52 7 68 -7 5 -41 20 -76 32 -73 27 -115 69 -133 132 -9 32 -12 298
-13 1040 -1 807 1 999 12 1010 10 10 60 13 200 13 109 0 216 -6 256 -13 79
-15 163 -55 222 -105 53 -46 98 -133 119 -231 14 -60 16 -103 12 -175 -10
-157 -49 -258 -137 -354 -33 -36 -74 -68 -114 -87 -75 -37 -216 -68 -353 -77
-78 -4 -106 -10 -118 -23 -9 -9 -13 -24 -9 -33 3 -9 36 -37 73 -61 63 -42 85
-64 212 -216 181 -216 274 -326 345 -409 43 -51 93 -110 109 -131 55 -69 377
-431 469 -528 109 -115 268 -252 368 -320 154 -104 341 -180 501 -203 90 -13
328 -6 389 11 21 6 44 18 53 26 21 22 19 51 -5 64 -11 6 -81 20 -156 31 -100
14 -161 30 -239 60 -116 45 -252 130 -380 239 -127 108 -321 303 -456 459 -68
80 -218 253 -334 386 -115 133 -254 292 -308 355 -54 62 -97 119 -95 127 2 8
44 31 94 52 51 21 115 55 143 75 70 52 153 145 190 216 18 33 44 104 58 157
21 80 26 121 27 223 1 104 -3 138 -23 200 -34 112 -78 187 -152 262 -49 49
-88 77 -150 107 -47 22 -120 50 -164 63 -77 21 -99 22 -626 25 -523 4 -546 3
-562 -15z"/>
</g>
</svg>
